<?xml version="1.0" standalone="no"?><!DOCTYPE svg PUBLIC "-//W3C//DTD SVG 1.1//EN" "http://www.w3.org/Graphics/SVG/1.1/DTD/svg11.dtd"><svg t="1599187587252" class="icon" viewBox="0 0 1025 1024" version="1.1" xmlns="http://www.w3.org/2000/svg" p-id="2485" xmlns:xlink="http://www.w3.org/1999/xlink" width="32.03125" height="32"><defs><style type="text/css"></style></defs><path d="M871.443311 163.490217c-262.848805 0-336.150721-98.946176-336.40656-99.433293l-44.899713 0.369431c-0.461533 1.001865-75.634142 99.063862-337.662217 99.063862L128.249955 163.490217l0 491.948377c0 198.510458 360.369447 294.745766 374.501984 301.001537l9.679918 4.296045 9.732109-4.296045c14.108999-6.255771 373.480675-102.489032 373.480675-301.001537L895.64464 163.490217 871.443311 163.490217zM847.220491 655.438594c0 150.037189-281.856606 226.392797-334.888924 251.697303-94.148686-43.788349-335.62881-118.11362-335.62881-251.697303L176.702757 212.122107c188.861241-4.403498 300.925809-59.98704 335.681001-96.823737 34.576105 36.915495 145.412646 92.422286 334.836733 96.823737L847.220491 655.438594zM476.694243 265.100187c8.340346 13.854184 15.474155 26.493645 21.212108 37.821165L289.634107 302.921352l0 33.981536 447.667793 0 0-33.981536L540.591523 302.921352c-10.042185-19.951335-19.617721-38.152732-28.729676-54.578607L476.694243 265.100187zM623.180388 360.847354l-34.678441-21.057582c-12.899393 22.9907-27.085144 44.820915-42.427287 65.567397L442.507013 405.357169l24.610671-17.683579c-11.869898-15.344189-25.126442-31.922545-39.696975-49.815912l-27.855731 19.615674c12.329384 15.807769 23.735703 31.770065 34.240445 47.883817L319.851741 405.357169l0 317.401829 34.216907 0L354.068649 438.386984l315.122817 0 0 207.292893c0 22.98763-9.910173 34.49833-29.681397 34.49833-15.526346 0-35.322131-1.315012-59.342326-3.835536 2.112205 8.289178 4.429082 21.700249 6.849317 40.187162 23.734679 0.669274 45.049123 0.79924 63.896257 0.515771 34.986471-0.310077 52.467426-20.595025 52.467426-60.835402L703.380742 405.358192 586.700842 405.358192C596.558824 393.695012 608.738799 378.865571 623.180388 360.847354zM456.641596 443.664427c-31.050646 30.662794-63.302711 57.617973-96.750055 80.912609 5.179201 5.76763 12.333478 15.162032 21.44748 28.215952 30.995385-24.22282 64.309693-52.310852 99.938831-84.23442L456.641596 443.664427zM659.249569 515.002524c-23.119643-17.892344-57.179977-41.652607-102.205562-71.338097l-20.106885 26.313534c36.1971 24.611695 69.353811 49.656269 99.502881 75.196146L659.249569 515.002524zM604.487781 521.204057 421.498552 521.204057l0 154.159264 32.850728 0 0-25.355674 150.142594 0L604.491874 521.204057 604.487781 521.204057 604.487781 521.204057zM571.640123 619.342806 454.348257 619.342806l0-67.476978 117.291866 0L571.640123 619.342806z" p-id="2486"></path></svg>