<?xml version="1.0" standalone="no"?><!DOCTYPE svg PUBLIC "-//W3C//DTD SVG 1.1//EN" "http://www.w3.org/Graphics/SVG/1.1/DTD/svg11.dtd"><svg t="1603267996001" class="icon" viewBox="0 0 1153 1024" version="1.1" xmlns="http://www.w3.org/2000/svg" p-id="2344" width="54.046875" height="48" xmlns:xlink="http://www.w3.org/1999/xlink"><defs><style type="text/css"></style></defs><path d="M654.530114 596.83597a212.871496 212.871496 0 0 0-289.607549-290.175964l42.346933 42.346933 94.072717 93.788509-80.430752 80.430752-94.072718-94.072717-42.346933-42.346933a211.734666 211.734666 0 0 0-22.4524 56.841521 216.281987 216.281987 0 0 0-5.399945 47.178462 212.871496 212.871496 0 0 0 319.449348 185.587566l167.398279 204.629476a73.325562 73.325562 0 0 0 52.578407 28.42076h3.694699a64.230919 64.230919 0 0 0 46.041632-18.757702l22.168193-22.168193a65.936164 65.936164 0 0 0 18.757702-49.452123 73.893977 73.893977 0 0 0-28.420761-52.862615z m-74.178185 4.263114a156.029975 156.029975 0 0 1-266.302526-105.441021l83.272828 83.272828a32.968082 32.968082 0 0 0 23.589232 9.947266 33.25229 33.25229 0 0 0 23.589231-9.663058l113.683042-113.683042a33.25229 33.25229 0 0 0 0-46.894255l-83.272828-82.704413a156.029975 156.029975 0 0 1 105.441021 266.302526z m247.260616 225.092423l-22.168193 22.168193a8.526228 8.526228 0 0 1-6.252567 2.273661 16.484041 16.484041 0 0 1-11.652512-6.252567l-161.145712-197.240078 197.240078 161.145712a16.484041 16.484041 0 0 1 6.252567 11.652512 8.242021 8.242021 0 0 1-2.273661 7.389397z" fill="#727272" p-id="2345"></path><path d="M892.127671 294.439079l-184.166528-126.188177V49.452123h-56.84152v80.146545L469.510963 5.399944a28.42076 28.42076 0 0 0-13.357757-5.399944h-7.957813a28.42076 28.42076 0 0 0-13.357758 4.547322L12.220927 294.439079A28.42076 28.42076 0 0 0 28.42076 346.164863a28.42076 28.42076 0 0 0 15.915626-5.115737l40.641688-28.420761v568.41521a28.42076 28.42076 0 0 0 28.42076 28.42076h445.353317v-56.841521H141.819595V274.544546l310.354704-212.303081 308.365251 210.882043v254.081599h56.841521v-214.576742l42.631141 28.420761a28.42076 28.42076 0 0 0 15.915626 4.831529 28.42076 28.42076 0 0 0 16.199833-51.725784z" fill="#727272" p-id="2346"></path></svg>