<?xml version="1.0" standalone="no"?><!DOCTYPE svg PUBLIC "-//W3C//DTD SVG 1.1//EN" "http://www.w3.org/Graphics/SVG/1.1/DTD/svg11.dtd"><svg t="1604470277724" class="icon" viewBox="0 0 1024 1024" version="1.1" xmlns="http://www.w3.org/2000/svg" p-id="5501" xmlns:xlink="http://www.w3.org/1999/xlink" width="32" height="32"><defs><style type="text/css"></style></defs><path d="M863.601206 859.27926H160.123797a153.572128 153.572128 0 0 1-153.293413-153.293414V153.293413A153.572128 153.572128 0 0 1 160.123797 0h703.477409a153.572128 153.572128 0 0 1 153.293413 153.293413v552.692433a153.572128 153.572128 0 0 1-153.293413 153.293414zM160.123797 83.614589A69.678824 69.678824 0 0 0 90.444973 153.293413v552.692433a69.678824 69.678824 0 0 0 69.678824 69.678825h703.477409a69.678824 69.678824 0 0 0 69.678824-69.678825V153.293413a69.678824 69.678824 0 0 0-69.678824-69.678824z" p-id="5502"></path><path d="M196.635501 165.556886m55.743059 0l518.967883 0q55.743059 0 55.743059 55.74306l0 416.400653q0 55.743059-55.743059 55.743059l-518.967883 0q-55.743059 0-55.743059-55.743059l0-416.400653q0-55.743059 55.743059-55.74306Z" p-id="5503"></path><path d="M303.94089 910.84159m48.775177 0l318.571584 0q48.775177 0 48.775177 48.775176l0 15.608057q0 48.775177-48.775177 48.775177l-318.571584 0q-48.775177 0-48.775177-48.775177l0-15.608057q0-48.775177 48.775177-48.775176Z" p-id="5504"></path></svg>